<svg width="192" height="192" viewBox="0 0 192 192" fill="none" xmlns="http://www.w3.org/2000/svg">
  <rect width="192" height="192" rx="48" fill="#0F766E"/>
  <rect x="28" y="28" width="136" height="136" rx="34" fill="#ECFDF5"/>
  <path d="M58 108C58 85.9086 75.9086 68 98 68H104C126.091 68 144 85.9086 144 108V110C144 115.523 139.523 120 134 120H124V92H118V146H110V106H92V146H84V92H78V120H68C62.4772 120 58 115.523 58 110V108Z" fill="#0F766E"/>
  <path d="M108 48L112.939 58.5279L124 60.1459L116 68.092L117.879 79.1041L108 73.64L98.1211 79.1041L100 68.092L92 60.1459L103.061 58.5279L108 48Z" fill="#F59E0B"/>
</svg>
