<svg width="512" height="512" viewBox="0 0 512 512" fill="none" xmlns="http://www.w3.org/2000/svg">
  <rect width="512" height="512" rx="128" fill="#0F766E"/>
  <rect x="74" y="74" width="364" height="364" rx="92" fill="#ECFDF5"/>
  <path d="M154 290C154 230.905 201.905 183 261 183H278C337.095 183 385 230.905 385 290V295C385 309.912 372.912 322 358 322H330V247H314V390H293V284H244V390H223V247H207V322H181C166.088 322 154 309.912 154 295V290Z" fill="#0F766E"/>
  <path d="M289 126L304.817 159.689L340.25 164.871L314.625 190.294L320.639 225.532L289 208.026L257.361 225.532L263.375 190.294L237.75 164.871L273.183 159.689L289 126Z" fill="#F59E0B"/>
</svg>
